# xmcd
#
# Track frame offsets:
# 150
# 16075
# 38535
# 52172
# 72152
# 85505
# 101970
# 120837
# 130835
# 156447
# 184875
#
# Disc length: 2693 seconds
#
#
# Revision: 0
# Processed by: cddbd v1.5.1PL0 Copyright (c) Steve Scherf et al.
# Submitted via: FreeRIP 2.92 
#
DISCID=880a830b
DTITLE=Al Blake - Dr. Blake's Magic Soul Elixir
DYEAR=1900
DGENRE=Blues
TTITLE0=Blues For Bobo
TTITLE1=Let's Rock Awhile
TTITLE2=Junior's Boogie Rocket [Instr.]
TTITLE3=I Am The Hummingbird
TTITLE4=Old Time Boogie [Instr.]
TTITLE5=Satisfy My Soul
TTITLE6=You're Sweet (Wilson)
TTITLE7=Big Foot's Boogie [Instr.]
TTITLE8=Telephone Blues
TTITLE9=Let Me Love You
TTITLE10=Sunday Strut [Instr.]
EXTD=
EXTT0=
EXTT1=
EXTT2=
EXTT3=
EXTT4=
EXTT5=
EXTT6=
EXTT7=
EXTT8=
EXTT9=
EXTT10=
PLAYORDER=
